<svg xmlns="http://www.w3.org/2000/svg" xml:space="preserve" width="300" height="300" viewBox="0 0 300 300"><defs><linearGradient id="a" x1="0" x2="1" y1="0" y2="0" gradientTransform="matrix(0 215.59639 215.59639 0 -189.863 271.15)" gradientUnits="userSpaceOnUse" spreadMethod="pad"><stop offset="0" style="stop-opacity:1;stop-color:#244ba6"/><stop offset="0.229996" style="stop-opacity:1;stop-color:#244ba6"/><stop offset="0.89412462" style="stop-opacity:1;stop-color:#00adef"/><stop offset="1" style="stop-opacity:1;stop-color:#00adef"/></linearGradient></defs><path d="M-246.05 372.238c0-62.142 50.315-112.516 112.377-112.516l-.006 59.426c-9.964 13.524-16.067 31.498-16.067 51.221 0 13.033 2.652 25.3 7.326 36.027h.008c5.259 11.37 5.939 29.2 5.939 48.168l.006 30.155c-60.773-1.482-109.584-51.277-109.584-112.48" style="fill:url(#a);stroke:none;stroke-width:2.78541" transform="matrix(1.33484 0 0 -1.33334 328.44 646.296)"/><path d="M-130.89 484.72c60.773-1.484 109.584-51.279 109.584-112.483 0-62.14-50.3-112.516-112.367-112.516-13.15 18.586-18.204 39.363-.006 59.427 9.963 13.523 16.067 31.5 16.067 51.22 0 13.033-2.652 25.303-7.326 36.027h-.006c-5.258 11.373-5.938 29.2-5.938 48.168z" style="fill:#244ba6;fill-opacity:1;fill-rule:nonzero;stroke:none;stroke-width:2.78541" transform="matrix(1.33484 0 0 -1.33334 328.44 646.296)"/></svg>